# AST/ASF file generated using VICON BodyLanguage
# -----------------------------------------------
:version 1.10
:name VICON
:units
  mass 1.0
  length 0.45
  angle deg
:documentation
   .ast/.asf automatically generated from VICON data using
   VICON BodyBuilder and BodyLanguage model FoxedUp or BRILLIANT.MOD
:root
   order TX TY TZ RX RY RZ
   axis XYZ
   position 0 0 0  
   orientation 0 0 0 
:bonedata
  begin
     id 1 
     name lhipjoint
     direction 0.547975 -0.797114 0.253638 
     length 2.36201 
     axis 0 0 0  XYZ
  end
  begin
     id 2 
     name lfemur
     direction 0.34202 -0.939693 0  
     length 7.69075  
     axis 0 0 20  XYZ
    dof rx ry rz
    limits (-160.0 20.0)
           (-70.0 70.0)
           (-60.0 70.0)
  end
  begin
     id 3 
     name ltibia
     direction 0.34202 -0.939693 0   
     length 7.91399   
     axis 0 0 20   XYZ
    dof rx
    limits (-10.0 170.0)
  end
  begin
     id 4 
     name lfoot
     direction 0.0705293 -0.193778 0.978507   
     length 2.13618   
     axis -90 7.62852e-016 20   XYZ
    dof rx rz
    limits (-45.0 90.0)
           (-70.0 20.0)
  end
  begin
     id 5 
     name ltoes
     direction 1.53592e-011 -4.21925e-011 1   
     length 1.07518   
     axis -90 7.62852e-016 20   XYZ
    dof rx
    limits (-90.0 20.0)
  end
  begin
     id 6 
     name rhipjoint
     direction -0.57 -0.782963 0.249136   
     length 2.4047  
     axis 0 0 0  XYZ 
  end
  begin
     id 7 
     name rfemur
     direction -0.34202 -0.939693 0   
     length 7.51486   
     axis 0 0 -20   XYZ
    dof rx ry rz
    limits (-160.0 20.0)
           (-70.0 70.0)
           (-70.0 60.0)
  end
  begin
     id 8 
     name rtibia
     direction -0.34202 -0.939693 0   
     length 8.08317   
     axis 0 0 -20   XYZ
    dof rx
    limits (-10.0 170.0)
 end
 begin
     id 9 
     name rfoot
     direction -0.104954 -0.281256 0.953876   
     length 2.30343  
     axis -90 -7.62852e-016 -20   XYZ
    dof rx rz
    limits (-45.0 90.0)
           (-20.0 70.0)
  end
  begin
     id 10 
     name rtoes
     direction -1.53556e-011 -4.21922e-011 1   
     length 1.14803   
     axis -90 -7.62852e-016 -20   XYZ
    dof rx
    limits (-90.0 20.0)
  end
  begin
     id 11 
     name lowerback
     direction -0.0152855 0.99353 -0.11254   
     length 2.05311   
     axis 0 0 0   XYZ
    dof rx ry rz
    limits (-20.0 45.0)
           (-30.0 30.0)
           (-30.0 30.0)
  end
  begin
     id 12 
     name upperback
     direction -0.00157509 0.999443 -0.033332   
     length 2.06353   
     axis 0 0 0   XYZ
    dof rx ry rz
    limits (-20.0 45.0)
           (-30.0 30.0)
           (-30.0 30.0)
  end
  begin
     id 13 
     name thorax
     direction 0.00577788 0.999804 0.0189484   
     length 2.08472   
     axis 0 0 0   XYZ
    dof rx ry rz
    limits (-20.0 45.0)
           (-30.0 30.0)
           (-30.0 30.0)
  end
  begin
     id 14 
     name lowerneck
     direction -1.09301e-005 0.994719 0.10264   
     length 1.76249   
     axis 0 0 0   XYZ
    dof rx ry rz
    limits (-20.0 45.0)
           (-30.0 30.0)
           (-30.0 30.0)
  end
  begin
     id 15 
     name upperneck
     direction 0.0495018 0.988526 -0.142706   
     length 1.77897   
     axis 0 0 0   XYZ
    dof rx ry rz
    limits (-20.0 45.0)
           (-30.0 30.0)
           (-30.0 30.0)
  end
  begin
     id 16
     name head
     direction 0.0142736 0.998114 -0.0597101  
     length 1.78934  
     axis 0 0 0   XYZ
    dof rx ry rz
    limits (-20.0 45.0)
           (-30.0 30.0)
           (-30.0 30.0)
  end
  begin
     id 17 
     name lclavicle
     direction 0.918111 0.396107 -0.0130883  
     length 3.37276  
     axis 0 0 0   XYZ
    dof ry rz
    limits (-20.0 10.0)
           (0.0 20.0)
  end
  begin
     id 18 
     name lhumerus
     direction 1 -4.48975e-011 -3.26108e-027   
     length 5.34298   
     axis 180 -30 -90   XYZ
    dof rx ry rz
    limits (-60.0 90.0)
           (-90.0 90.0)
           (-90.0 90.0)
  end
  begin
     id 19
     name lradius
     direction 1 -4.48964e-011 -8.84413e-028   
     length 3.67262   
     axis 180 -30 -90   XYZ
    dof rx
    limits (-10.0 170.0)
  end
  begin
     id 20
     name lwrist
     direction 1 -4.48991e-011 -1.24264e-027   
     length 1.83631   
     axis -2.17013e-015 90 90   XYZ
    dof ry
    limits (-180.0 0.0)
 end
  begin
     id 21 
     name lhand
     direction 1 -4.48855e-011 -2.48528e-027   
     length 0.599298   
     axis 1.58582e-015 90 90   XYZ
    dof rx rz
    limits (-90.0 90.0)
           (-45.0 45.0)
  end
  begin
     id 22 
     name lfingers
     direction 1 -4.48811e-011 -4.97056e-027   
     length 0.48317   
     axis 3.17164e-015 90 90   XYZ
    dof rx
    limits (0.0 90.0)
  end
  begin
     id 23
     name lthumb
     direction 0.707107 -6.34882e-011 0.707107   
     length 0.693738   
     axis -90 45 2.85299e-015   XYZ
    dof rx rz
    limits (-45.0 45.0)
           (-45.0 45.0)
  end
  begin
     id 24 
     name rclavicle
     direction -0.920511 0.384752 -0.0680135   
     length 3.43787  
     axis 0 0 0   XYZ 
    dof ry rz
    limits (-10.0 20.0)
           (-20.0 0.0)
  end
  begin
     id 25 
     name rhumerus
     direction -0.999976 -0.00330524 0.00603274  
     length 5.5498   
     axis 180 30 90   XYZ
    dof rx ry rz
    limits (-90.0 60.0)
           (-90.0 90.0)
           (-90.0 90.0)
  end
  begin
     id 26 
     name rradius
     direction -1 -4.48967e-011 8.62438e-027   
     length 3.69401   
     axis 180 30 90   XYZ
    dof rx
    limits (-10.0 170.0)
  end
  begin
     id 27 
     name rwrist
     direction -1 -4.4897e-011 9.54866e-027   
     length 1.84701   
     axis -7.69462e-015 -90 -90   XYZ
    dof ry
    limits (-180.0 0.0)
  end
  begin
     id 28
     name rhand
     direction -1 -4.48982e-011 1.90973e-026   
     length 0.638113   
     axis -1.21857e-014 -90 -90   XYZ
    dof rx rz
    limits (-90.0 90.0)
           (-45.0 45.0)
  end
  begin
     id 29
     name rfingers
     direction -1 -4.48936e-011 3.81946e-026   
     length 0.514463   
     axis -2.43714e-014 -90 -90   XYZ
    dof rx
    limits (0.0 90.0)
  end
  begin
     id 30
     name rthumb
     direction -0.707107 -6.34942e-011 0.707107   
     length 0.738669   
     axis -90 -45 -2.85299e-015   XYZ
    dof rx rz
    limits (-45.0 45.0)
           (-45.0 45.0)
  end
:hierarchy
  begin
    root lhipjoint rhipjoint lowerback
    lhipjoint lfemur
    lfemur ltibia
    ltibia lfoot
    lfoot ltoes
    rhipjoint rfemur
    rfemur rtibia
    rtibia rfoot
    rfoot rtoes
    lowerback upperback
    upperback thorax
    thorax lowerneck lclavicle rclavicle
    lowerneck upperneck
    upperneck head
    lclavicle lhumerus
    lhumerus lradius
    lradius lwrist
    lwrist lhand lthumb
    lhand lfingers
    rclavicle rhumerus
    rhumerus rradius
    rradius rwrist
    rwrist rhand rthumb
    rhand rfingers
  end

#!OML:ASF F:\twosubjects\two\Thursday\Session 1\Rory.ASF
:FULLY-SPECIFIED
:DEGREES
1
root 11.3907 17.6943 -14.031 2.89401 -4.46826 6.03745
lowerback 0.491536 -0.689238 -7.65284
upperback 1.38193 -0.877456 -2.80586
thorax 1.22497 -0.506043 1.38482
lowerneck -9.95815 -0.0953933 0.59093
upperneck 24.1634 -0.588871 1.23551
head 9.22329 -0.105233 0.256968
rclavicle 6.60959e-015 1.19271e-015
rhumerus -36.5813 -10.4832 -83.2635
rradius 34.8737
rwrist 16.3508
rhand -23.3301 25.7301
rfingers 7.12502
rthumb 3.12432 -4.22678
lclavicle 6.60959e-015 1.19271e-015
lhumerus -20.3776 3.12011 83.6681
lradius 33.8018
lwrist -19.7838
lhand -13.8334 31.2581
lfingers 7.12502
lthumb 12.2897 60.8769
rfemur -28.1546 7.53249 12.4878
rtibia 22.7995
rfoot -12.3075 -17.1242
rtoes -7.41847
lfemur 10.8952 4.02795 -27.9858
ltibia -1.74931e-014
lfoot -8.3931 -1.54757
ltoes 16.8203
2
root 11.3666 17.6772 -13.9359 2.77526 -4.27221 6.37825
lowerback 0.585053 -0.79099 -7.89705
upperback 1.35779 -1.02357 -2.84484
thorax 1.16363 -0.578738 1.48
lowerneck -9.90056 0.052966 0.679548
upperneck 24.2397 -0.405691 1.26034
head 9.23846 -0.00901808 0.270299
rclavicle -1.42628e-014 -6.04305e-014
rhumerus -36.5863 -10.4204 -83.2787
rradius 34.6074
rwrist 16.6194
rhand -24.1246 26.0576
rfingers 7.12502
rthumb 2.35702 -3.90912
lclavicle -1.42628e-014 -6.04305e-014
lhumerus -20.7766 4.18232 83.4577
lradius 33.3381
lwrist -20.3707
lhand -14.7174 29.874
lfingers 7.12502
lthumb 11.4373 59.542
rfemur -27.966 6.51654 12.5157
rtibia 23.155
rfoot -11.4601 -16.3132
rtoes -7.7395
lfemur 11.3312 3.82307 -28.2431
ltibia 2.38542e-014
lfoot -8.38157 -1.6189
ltoes 14.8699
3
root 11.3394 17.6631 -13.8468 2.82961 -3.92525 6.64313
lowerback 0.637329 -0.85608 -7.95493
upperback 1.2996 -1.1188 -2.96655
thorax 1.08076 -0.622056 1.38734
lowerneck -10.0472 0.0685248 0.760735
upperneck 24.4479 -0.453844 1.4562
head 9.34027 -0.0010294 0.319287
rclavicle -3.05631e-014 -1.94809e-014
rhumerus -36.6649 -10.9592 -83.1527
rradius 34.3951
rwrist 16.9928
rhand -24.295 26.902
rfingers 7.12502
rthumb 2.19249 -3.06644
lclavicle -3.05631e-014 -1.94809e-014
lhumerus -21.0753 4.30963 83.2186
lradius 32.8868
lwrist -20.3264
lhand -15.1442 29.0962
lfingers 7.12502
lthumb 11.0256 58.7866
rfemur -27.9273 5.35544 12.639
rtibia 23.5804
rfoot -10.0854 -15.3876
rtoes -8.07052
lfemur 11.6435 3.44836 -28.4232
ltibia 6.36111e-015
lfoot -8.52922 -1.63888
ltoes 13.4589
4
root 11.2991 17.6579 -13.7509 2.77578 -3.94373 6.80851
lowerback 0.730661 -0.851777 -8.2713
upperback 1.21536 -1.13019 -2.85653
thorax 0.951288 -0.625087 1.67814
lowerneck -10.0324 0.0868166 0.535654
upperneck 24.5431 -0.404862 1.53874
head 9.37076 0.0107671 0.3917
rclavicle 1.95306e-014 3.45885e-014
rhumerus -36.8294 -11.0218 -82.8478
rradius 34.1803
rwrist 17.0971
rhand -23.6184 26.7842
rfingers 7.12502
rthumb 2.84586 -3.17656
lclavicle 1.95306e-014 3.45885e-014
lhumerus -21.7541 5.14712 83.1425
lradius 32.8159
lwrist -20.8176
lhand -15.0461 28.1716
lfingers 7.12502
lthumb 11.1203 57.8569
rfemur -27.8322 4.86428 12.9022
rtibia 24.0397
rfoot -8.12603 -14.3584
rtoes -4.20112
lfemur 12.0598 3.43001 -28.3821
ltibia 2.22639e-014
lfoot -8.62817 -1.78922
ltoes 13.5914
5
root 11.273 17.6682 -13.6405 2.89738 -3.68693 7.01512
lowerback 0.468065 -0.985969 -8.41371
upperback 1.16999 -1.2825 -2.77527
thorax 1.07125 -0.705524 1.83495
lowerneck -9.91268 0.113957 0.481562
upperneck 24.3796 -0.302152 1.33894
head 9.28933 0.031031 0.342652
rclavicle -4.47266e-016 -2.38542e-015
rhumerus -36.9745 -10.9022 -82.6496
rradius 34.0088
rwrist 17.3922
rhand -23.5021 26.1216
rfingers 7.12502
rthumb 2.95823 -3.83763
lclavicle -4.47266e-016 -2.38542e-015
lhumerus -22.2252 6.10172 83.0682
lradius 32.428
lwrist -21.3553
lhand -12.4975 30.359
lfingers 7.12502
lthumb 13.5775 59.8963
rfemur -28.0005 4.48795 12.8461
rtibia 24.5698
rfoot -6.24441 -13.6807
rtoes 4.4606
lfemur 12.2553 3.12966 -28.479
ltibia -3.18055e-015
lfoot -8.4286 -2.05308
ltoes 15.3246
6
root 11.2421 17.679 -13.5378 2.66176 -3.33775 7.2749
lowerback 0.669823 -1.05727 -8.52613
upperback 1.21937 -1.39605 -2.85001
thorax 1.0209 -0.762117 1.82219
lowerneck -9.946 0.0795014 0.570072
upperneck 24.4581 -0.363775 1.31423
head 9.32351 0.00835552 0.312728
rclavicle 1.05356e-014 3.97569e-014
rhumerus -37.0177 -11.1688 -82.5841
rradius 33.6008
rwrist 18.0349
rhand -24.2243 25.635
rfingers 7.12502
rthumb 2.26078 -4.33273
lclavicle 1.05356e-014 3.97569e-014
lhumerus -22.4921 6.43137 82.8288
lradius 31.668
lwrist -21.5355
lhand -12.6131 30.8528
lfingers 7.12502
lthumb 13.4662 60.3975
rfemur -27.7904 4.61081 12.6241
rtibia 25.1082
rfoot -5.23367 -13.8041
rtoes 1.21502
lfemur 12.8162 2.78125 -28.5744
ltibia -3.81667e-014
lfoot -8.12233 -2.26955
ltoes 16.9747
